<svg width="24" height="24" viewBox="0 0 24 24" fill="none" xmlns="http://www.w3.org/2000/svg">
<path d="M3.36364 20H6.54545V11.7596L2 8.1242V18.5458C2 19.3505 2.61136 20 3.36364 20Z" fill="black"/>
<path d="M17.4545 20H20.6364C21.3909 20 22 19.348 22 18.5458V8.1242L17.4545 11.7596" fill="black"/>
<path d="M17.4545 5.45831V11.7596L22 8.1242V6.1854C22 4.38706 20.075 3.36186 18.7273 4.44038" fill="black"/>
<path d="M6.54545 11.7596L6.54545 5.4582L12 9.82074L17.4545 5.45831V11.7596L12 16.1222" fill="black"/>
<path d="M2 6.1854V8.1242L6.54545 11.7596L6.54545 5.4582L5.27273 4.44038C3.92273 3.36186 2 4.38706 2 6.1854Z" fill="black"/>
</svg>
