<svg width="24" height="24" viewBox="0 0 24 24" fill="none" xmlns="http://www.w3.org/2000/svg">
<path d="M12.0419 2C6.5529 2 2.08581 6.446 2.08387 11.91C2.08258 13.6573 2.54194 15.3627 3.4129 16.8647L2 22L7.27935 20.622C8.74788 21.4158 10.3808 21.8298 12.0381 21.8287H12.0419C17.531 21.8287 21.9981 17.382 22 11.918C22.0013 9.27133 20.9665 6.78 19.0858 4.90733C17.2058 3.034 14.7058 2.00067 12.0419 2ZM12.0419 20.1547H12.0387C10.5535 20.1547 9.09677 19.7573 7.82581 19.0067L7.52258 18.828L4.39097 19.6453L5.2271 16.6053L5.03032 16.294C4.20381 14.9914 3.76383 13.4676 3.76452 11.91C3.76645 7.368 7.48 3.674 12.0452 3.674C14.2555 3.67467 16.3335 4.53267 17.8968 6.08933C19.46 7.646 20.32 9.716 20.3187 11.9173C20.3168 16.4593 16.6039 20.1547 12.0413 20.1547H12.0419ZM16.5819 13.9847C16.3329 13.8613 15.1097 13.262 14.8813 13.1787C14.6535 13.0967 14.4877 13.054 14.3219 13.302C14.1568 13.55 13.6794 14.108 13.5348 14.2727C13.389 14.438 13.2439 14.458 12.9948 14.3347C12.7458 14.2107 11.9439 13.9493 10.9942 13.1053C10.2542 12.4493 9.75484 11.6387 9.60968 11.39C9.46452 11.1427 9.59419 11.0087 9.71871 10.8853C9.83032 10.7753 9.96774 10.5967 10.0916 10.452C10.2155 10.3073 10.2568 10.204 10.3406 10.0387C10.4232 9.874 10.3819 9.72867 10.3194 9.60533C10.2568 9.48067 9.76 8.262 9.55161 7.76667C9.35032 7.284 9.14516 7.34867 8.99226 7.34067C8.8471 7.334 8.68194 7.332 8.51484 7.332C8.35032 7.332 8.08 7.394 7.85161 7.642C7.62387 7.89 6.98064 8.48867 6.98064 9.70733C6.98064 10.9267 7.87226 12.104 7.99677 12.2693C8.12129 12.434 9.75161 14.936 12.2477 16.0093C12.8413 16.2633 13.3045 16.416 13.6665 16.5307C14.2626 16.7193 14.8052 16.692 15.2335 16.6287C15.711 16.5573 16.7058 16.03 16.9123 15.452C17.12 14.874 17.12 14.378 17.0581 14.2747C16.9974 14.1713 16.831 14.1093 16.5819 13.9847V13.9847Z" fill="black"/>
</svg>
